<?xml version="1.0" encoding="UTF-8" standalone="no"?>
<!DOCTYPE svg PUBLIC "-//W3C//DTD SVG 1.1//EN"
 "http://www.w3.org/Graphics/SVG/1.1/DTD/svg11.dtd">
<!-- Generated by graphviz version 2.36.0 (20140111.2315)
 -->
<!-- Title: WorkflowStart Pages: 1 -->
<svg width="444pt" height="548pt"
 viewBox="0.00 0.00 444.00 548.00" xmlns="http://www.w3.org/2000/svg" xmlns:xlink="http://www.w3.org/1999/xlink">
<g id="graph0" class="graph" transform="scale(1 1) rotate(0) translate(4 544)">
<title>WorkflowStart</title>
<polygon fill="white" stroke="none" points="-4,4 -4,-544 440,-544 440,4 -4,4"/>
<!-- nodeB_Create -->
<g id="node1" class="node"><title>nodeB_Create</title>
<ellipse fill="none" stroke="black" cx="220" cy="-522" rx="63.0666" ry="18"/>
<text text-anchor="middle" x="220" y="-518.3" font-family="Times,serif" font-size="14.00">nodeB_Create</text>
</g>
<!-- nodeA_Create -->
<g id="node2" class="node"><title>nodeA_Create</title>
<ellipse fill="none" stroke="black" cx="220" cy="-450" rx="63.0666" ry="18"/>
<text text-anchor="middle" x="220" y="-446.3" font-family="Times,serif" font-size="14.00">nodeA_Create</text>
</g>
<!-- nodeB_Create&#45;&gt;nodeA_Create -->
<g id="edge1" class="edge"><title>nodeB_Create&#45;&gt;nodeA_Create</title>
<path fill="none" stroke="black" d="M220,-503.697C220,-495.983 220,-486.712 220,-478.112"/>
<polygon fill="black" stroke="black" points="223.5,-478.104 220,-468.104 216.5,-478.104 223.5,-478.104"/>
</g>
<!-- nodeA_PreConfigureSource -->
<g id="node3" class="node"><title>nodeA_PreConfigureSource</title>
<ellipse fill="none" stroke="black" cx="220" cy="-378" rx="113.135" ry="18"/>
<text text-anchor="middle" x="220" y="-374.3" font-family="Times,serif" font-size="14.00">nodeA_PreConfigureSource</text>
</g>
<!-- nodeA_Create&#45;&gt;nodeA_PreConfigureSource -->
<g id="edge2" class="edge"><title>nodeA_Create&#45;&gt;nodeA_PreConfigureSource</title>
<path fill="none" stroke="black" d="M220,-431.697C220,-423.983 220,-414.712 220,-406.112"/>
<polygon fill="black" stroke="black" points="223.5,-406.104 220,-396.104 216.5,-406.104 223.5,-406.104"/>
</g>
<!-- nodeB_PreConfigureTarget -->
<g id="node4" class="node"><title>nodeB_PreConfigureTarget</title>
<ellipse fill="none" stroke="black" cx="220" cy="-306" rx="111.21" ry="18"/>
<text text-anchor="middle" x="220" y="-302.3" font-family="Times,serif" font-size="14.00">nodeB_PreConfigureTarget</text>
</g>
<!-- nodeA_PreConfigureSource&#45;&gt;nodeB_PreConfigureTarget -->
<g id="edge3" class="edge"><title>nodeA_PreConfigureSource&#45;&gt;nodeB_PreConfigureTarget</title>
<path fill="none" stroke="black" d="M220,-359.697C220,-351.983 220,-342.712 220,-334.112"/>
<polygon fill="black" stroke="black" points="223.5,-334.104 220,-324.104 216.5,-334.104 223.5,-334.104"/>
</g>
<!-- nodeA_Configure -->
<g id="node5" class="node"><title>nodeA_Configure</title>
<ellipse fill="none" stroke="black" cx="142" cy="-234" rx="76.0649" ry="18"/>
<text text-anchor="middle" x="142" y="-230.3" font-family="Times,serif" font-size="14.00">nodeA_Configure</text>
</g>
<!-- nodeB_PreConfigureTarget&#45;&gt;nodeA_Configure -->
<g id="edge4" class="edge"><title>nodeB_PreConfigureTarget&#45;&gt;nodeA_Configure</title>
<path fill="none" stroke="black" d="M201.118,-288.055C191.177,-279.134 178.835,-268.057 168.003,-258.336"/>
<polygon fill="black" stroke="black" points="170.219,-255.622 160.439,-251.547 165.543,-260.831 170.219,-255.622"/>
</g>
<!-- nodeB_Configure -->
<g id="node6" class="node"><title>nodeB_Configure</title>
<ellipse fill="none" stroke="black" cx="326" cy="-162" rx="75.0904" ry="18"/>
<text text-anchor="middle" x="326" y="-158.3" font-family="Times,serif" font-size="14.00">nodeB_Configure</text>
</g>
<!-- nodeB_PreConfigureTarget&#45;&gt;nodeB_Configure -->
<g id="edge5" class="edge"><title>nodeB_PreConfigureTarget&#45;&gt;nodeB_Configure</title>
<path fill="none" stroke="black" d="M232.786,-287.871C251.25,-263.137 285.509,-217.242 306.956,-188.512"/>
<polygon fill="black" stroke="black" points="309.991,-190.296 313.169,-180.189 304.382,-186.109 309.991,-190.296"/>
</g>
<!-- nodeA_PostConfigureSource -->
<g id="node7" class="node"><title>nodeA_PostConfigureSource</title>
<ellipse fill="none" stroke="black" cx="116" cy="-162" rx="116.484" ry="18"/>
<text text-anchor="middle" x="116" y="-158.3" font-family="Times,serif" font-size="14.00">nodeA_PostConfigureSource</text>
</g>
<!-- nodeA_Configure&#45;&gt;nodeA_PostConfigureSource -->
<g id="edge6" class="edge"><title>nodeA_Configure&#45;&gt;nodeA_PostConfigureSource</title>
<path fill="none" stroke="black" d="M135.706,-216.055C132.78,-208.176 129.229,-198.617 125.952,-189.794"/>
<polygon fill="black" stroke="black" points="129.179,-188.431 122.417,-180.275 122.617,-190.868 129.179,-188.431"/>
</g>
<!-- nodeB_PostConfigureTarget -->
<g id="node8" class="node"><title>nodeB_PostConfigureTarget</title>
<ellipse fill="none" stroke="black" cx="321" cy="-90" rx="115.06" ry="18"/>
<text text-anchor="middle" x="321" y="-86.3" font-family="Times,serif" font-size="14.00">nodeB_PostConfigureTarget</text>
</g>
<!-- nodeB_Configure&#45;&gt;nodeB_PostConfigureTarget -->
<g id="edge7" class="edge"><title>nodeB_Configure&#45;&gt;nodeB_PostConfigureTarget</title>
<path fill="none" stroke="black" d="M324.764,-143.697C324.213,-135.983 323.551,-126.712 322.937,-118.112"/>
<polygon fill="black" stroke="black" points="326.425,-117.83 322.222,-108.104 319.443,-118.328 326.425,-117.83"/>
</g>
<!-- nodeA_Start -->
<g id="node9" class="node"><title>nodeA_Start</title>
<ellipse fill="none" stroke="black" cx="126" cy="-90" rx="56.3173" ry="18"/>
<text text-anchor="middle" x="126" y="-86.3" font-family="Times,serif" font-size="14.00">nodeA_Start</text>
</g>
<!-- nodeA_PostConfigureSource&#45;&gt;nodeA_Start -->
<g id="edge8" class="edge"><title>nodeA_PostConfigureSource&#45;&gt;nodeA_Start</title>
<path fill="none" stroke="black" d="M118.472,-143.697C119.574,-135.983 120.898,-126.712 122.127,-118.112"/>
<polygon fill="black" stroke="black" points="125.607,-118.499 123.557,-108.104 118.677,-117.509 125.607,-118.499"/>
</g>
<!-- nodeB_Start -->
<g id="node10" class="node"><title>nodeB_Start</title>
<ellipse fill="none" stroke="black" cx="223" cy="-18" rx="55.3436" ry="18"/>
<text text-anchor="middle" x="223" y="-14.3" font-family="Times,serif" font-size="14.00">nodeB_Start</text>
</g>
<!-- nodeB_PostConfigureTarget&#45;&gt;nodeB_Start -->
<g id="edge9" class="edge"><title>nodeB_PostConfigureTarget&#45;&gt;nodeB_Start</title>
<path fill="none" stroke="black" d="M297.277,-72.055C284.048,-62.6057 267.434,-50.7388 253.276,-40.6254"/>
<polygon fill="black" stroke="black" points="255.001,-37.5567 244.829,-34.5923 250.932,-43.2528 255.001,-37.5567"/>
</g>
<!-- nodeA_Start&#45;&gt;nodeB_Start -->
<g id="edge10" class="edge"><title>nodeA_Start&#45;&gt;nodeB_Start</title>
<path fill="none" stroke="black" d="M148.011,-73.1159C161.374,-63.472 178.609,-51.035 193.185,-40.5162"/>
<polygon fill="black" stroke="black" points="195.35,-43.2701 201.41,-34.5801 191.253,-37.5938 195.35,-43.2701"/>
</g>
</g>
</svg>
